<?xml version="1.0" encoding="UTF-8"?>
<svg id="Layer_1" data-name="Layer 1" xmlns="http://www.w3.org/2000/svg" xmlns:xlink="http://www.w3.org/1999/xlink" viewBox="-8.23 0 135.62 95.2">
  <defs>
    <style>
      .cls-1 {
        fill: none;
      }

      .cls-2 {
        fill: #fff;
      }

      .cls-3 {
        clip-path: url(#clippath);
      }
    </style>
    <clipPath id="clippath">
      <rect class="cls-1" x="35.73" y="27.26" width="47.7" height="39.4"/>
    </clipPath>
  </defs>
  
  <g class="cls-3">
    <path class="cls-2" d="M59.68,54.72c-.13,0-.25-.05-.34-.14l-11.04-11.3c-.18-.18-.18-.48,0-.66l.48-.49c.09-.09.21-.14.34-.14h0c.12,0,.25.05.33.14l9.42,9.53v-23.93c0-.26.21-.47.47-.47h.73c.26,0,.47.21.47.47v23.91l9.53-9.87c.09-.09.21-.14.34-.14.03,0,.07,0,.1.01.16.04.29.15.34.31l.25.73c.06.17.02.35-.11.48l-10.99,11.42c-.09.09-.21.14-.34.14h0Z"/>
    <path class="cls-2" d="M59.59,66.66c-6.18,0-12.24-1.49-17.52-4.3-1.41-.75-2.7-1.67-3.96-2.56-.7-.5-1.43-1.01-2.16-1.49-.11-.07-.18-.18-.21-.3-.06-.32.02-.67.23-.92.19-.23.45-.35.74-.35.05,0,.09,0,.15.01.21.03.4.15,2.09,1.49.59.47,1.21.95,1.43,1.09,5.67,3.68,12.28,5.62,19.11,5.62,7.41,0,14.53-2.24,20.6-6.49.04-.03.17-.15.29-.25.84-.75,1.64-1.42,2.26-1.42.39,0,.69.25.78.66.07.34-.02.67-1.82,2.02-.87.65-1.85,1.32-2.16,1.52-5.81,3.7-12.67,5.66-19.85,5.66"/>
  </g>
</svg>